<svg width="23" height="23" viewBox="0 0 23 23" fill="none" xmlns="http://www.w3.org/2000/svg">
<path d="M2.55554 3.19443C2.55554 3.19443 2.55554 2.55554 3.19443 2.55554H7.02776C7.02776 2.55554 7.66665 2.55554 7.66665 3.19443V4.47221H2.55554V3.19443Z" fill="#66757F"/>
<path d="M0 6.38893C0 6.38893 0 3.83337 2.55556 3.83337H20.4444C20.4444 3.83337 23 3.83337 23 6.38893V17.8889C23 17.8889 23 20.4445 20.4444 20.4445H2.55556C2.55556 20.4445 0 20.4445 0 17.8889V6.38893Z" fill="#31373D"/>
<path d="M13.4167 18.5278C16.9452 18.5278 19.8056 15.6674 19.8056 12.1389C19.8056 8.6104 16.9452 5.75 13.4167 5.75C9.88823 5.75 7.02783 8.6104 7.02783 12.1389C7.02783 15.6674 9.88823 18.5278 13.4167 18.5278Z" fill="#CCD6DD"/>
<path d="M13.4167 17.2501C16.2394 17.2501 18.5278 14.9617 18.5278 12.1389C18.5278 9.31615 16.2394 7.02783 13.4167 7.02783C10.5939 7.02783 8.30554 9.31615 8.30554 12.1389C8.30554 14.9617 10.5939 17.2501 13.4167 17.2501Z" fill="#31373D"/>
<path d="M13.4166 15.3333C15.1809 15.3333 16.6111 13.9031 16.6111 12.1389C16.6111 10.3747 15.1809 8.94446 13.4166 8.94446C11.6524 8.94446 10.2222 10.3747 10.2222 12.1389C10.2222 13.9031 11.6524 15.3333 13.4166 15.3333Z" fill="#3B88C3"/>
<path d="M20.7639 7.02775C21.2931 7.02775 21.7222 6.59869 21.7222 6.06942C21.7222 5.54014 21.2931 5.11108 20.7639 5.11108C20.2346 5.11108 19.8055 5.54014 19.8055 6.06942C19.8055 6.59869 20.2346 7.02775 20.7639 7.02775Z" fill="white"/>
<path d="M7.66665 6.06942C7.66665 6.59906 7.23796 7.02775 6.70832 7.02775H3.51388C2.98424 7.02775 2.55554 6.59906 2.55554 6.06942C2.55554 5.53978 2.98424 5.11108 3.51388 5.11108H6.70832C7.23796 5.11108 7.66665 5.53978 7.66665 6.06942Z" fill="#F5F8FA"/>
</svg>
