<svg width="23" height="23" viewBox="0 0 23 23" fill="none" xmlns="http://www.w3.org/2000/svg">
<g clip-path="url(#clip0_998_2164)">
<path d="M11.5 23C12.9114 23 14.0556 22.571 14.0556 22.0417C14.0556 21.5124 12.9114 21.0834 11.5 21.0834C10.0886 21.0834 8.94446 21.5124 8.94446 22.0417C8.94446 22.571 10.0886 23 11.5 23Z" fill="#292F33"/>
<path d="M9.16101 6.85205C9.16101 6.85205 10.7934 22.3598 11.5006 22.3611C12.2072 22.3617 13.839 6.85205 13.839 6.85205H9.16101Z" fill="#99AAB5"/>
<path d="M11.5 10.2222C14.3228 10.2222 16.6111 7.9339 16.6111 5.11111C16.6111 2.28832 14.3228 0 11.5 0C8.67724 0 6.38892 2.28832 6.38892 5.11111C6.38892 7.9339 8.67724 10.2222 11.5 10.2222Z" fill="#DD2E44"/>
</g>
<defs>
<clipPath id="clip0_998_2164">
<rect width="23" height="23" fill="white"/>
</clipPath>
</defs>
</svg>
