<svg width="990" height="266" viewBox="0 0 990 266" fill="none" xmlns="http://www.w3.org/2000/svg">
<g filter="url(#filter0_d_938_2202)">
<path d="M10 167.517V57.4961C10.0013 43.172 21.625 31.5068 35.9661 31.505V41.7475C27.296 41.7485 20.2432 48.8127 20.2424 57.4961V167.517C20.2436 175.921 26.8506 182.806 35.1359 183.241C34.9239 184.401 34.8108 185.575 34.8108 186.761C34.8109 197.696 43.9036 207.653 60.4168 214.798C75.7476 221.437 96.0379 225.09 117.545 225.09C139.053 225.09 159.347 221.433 174.679 214.798C191.187 207.649 200.285 197.696 200.285 186.761C200.285 185.577 200.166 184.405 199.955 183.246C208.245 182.815 214.858 175.925 214.858 167.517V57.5011C214.858 48.8168 207.801 41.7525 199.129 41.7525V31.51C213.021 31.51 224.369 42.4547 225.065 56.1658L225.1 57.5011V167.517C225.1 177.882 219.016 186.842 210.222 191.012C208.11 206.119 194.864 217.217 178.75 224.195L178.745 224.2C161.818 231.524 140.067 235.333 117.545 235.333C95.0261 235.333 73.2791 231.525 56.3509 224.195C40.2243 217.218 26.9769 206.117 24.8685 191.007C16.4484 187.011 10.5132 178.622 10.03 168.812L10 167.517ZM56.3009 183.266C56.2062 183.793 56.1509 184.324 56.1508 184.861C56.1508 197.691 83.6381 208.091 117.545 208.091C151.453 208.091 178.945 197.692 178.945 184.861C178.945 184.324 178.889 183.793 178.795 183.266H190.827C191.221 184.434 191.428 185.605 191.428 186.771C191.427 193.84 184.039 201.088 171.163 206.661C156.913 212.83 137.87 216.223 117.545 216.223C97.2213 216.223 78.1822 212.825 63.9327 206.661C51.0569 201.088 43.6688 193.84 43.6679 186.771C43.6679 185.605 43.8743 184.434 44.268 183.266H56.3009ZM289.005 45.8484C277.125 50.9011 271.182 60.5284 271.181 74.7302C271.181 80.739 273.842 88.5262 279.168 98.0857L316.042 164.251L315.427 165.481H273.027V189.242H327.309C336.459 182.824 341.033 172.718 341.033 158.925C341.033 152.643 337.687 143.491 330.995 131.474L298.223 71.6595L298.838 70.4292H338.167V45.8484H289.005ZM483.806 45.8484L456.155 189.242H484.011L488.312 166.502H520.68L524.981 189.242H552.432L526.211 45.8484H483.806ZM684.653 45.8484L657.002 189.242H684.858L689.159 166.502H721.527L725.828 189.242H753.279L727.058 45.8484H684.653ZM887.071 140.691V45.8484H859.004V130.448C859.004 142.466 860.032 152.645 862.08 160.975C864.402 171.217 870.82 180.639 881.335 189.242H926.81C937.325 180.366 943.743 170.944 946.065 160.975C947.43 155.376 948.252 150.661 948.525 146.837C948.935 142.877 949.14 137.412 949.14 130.448V45.8484H921.074V140.691C921.074 147.246 920.394 152.235 919.028 155.649C917.799 158.926 915.681 162.204 912.677 165.481H895.468C892.464 162.204 890.277 158.926 888.911 155.649C887.682 152.235 887.071 147.246 887.071 140.691ZM504.496 72.4797L512.488 120.206L517.199 144.587H491.593L496.099 120.206L504.086 72.4797H504.496ZM705.343 72.4797L713.335 120.206L718.046 144.587H692.44L696.946 120.206L704.933 72.4797H705.343ZM339.977 126.552C341.865 129.945 343.575 133.262 345.069 136.48V80.6716H314.837L339.977 126.552ZM704.748 134.344H705.633L705.178 132.004L704.748 134.344ZM503.901 134.344H504.786L504.331 132.004L503.901 134.344ZM611.271 92.3493C611.271 88.2921 610.397 85.199 608.971 82.7421L608.906 82.637L608.846 82.527C608.404 81.7218 608.025 81.1153 607.715 80.6716H602.259V103.822H606.865C607.325 103.31 607.942 102.54 608.691 101.416L608.711 101.386L608.731 101.351C610.34 98.975 611.271 96.1037 611.271 92.3493ZM383.378 45.8484H355.311V189.242H383.378V129.838H416.15V189.242H444.217V45.8484H416.15V103.617H383.378V45.8484ZM156.404 10C164.859 10.0012 172.273 15.479 174.754 23.5682L177.189 31.51H199.129V41.7525H169.617L164.961 26.5739C163.8 22.7848 160.361 20.243 156.404 20.2424V10ZM77.961 20.2424C74.0444 20.2424 70.6341 22.7585 69.464 26.4989L64.7028 41.7475H35.9661V31.505H57.1711L59.6867 23.4482C62.1882 15.4523 69.546 10 77.961 10V20.2424ZM156.404 10V20.2424H77.961V10H156.404ZM621.514 92.3493C621.513 97.948 620.08 102.865 617.213 107.098C614.481 111.195 611.952 113.518 609.631 114.064H592.017V70.4292H610.861C613.183 70.9754 615.506 73.3673 617.828 77.6009C620.285 81.8341 621.514 86.7508 621.514 92.3493ZM765.207 45.8484V189.242H793.274V126.557H794.704L819.085 189.242H850.217L818.88 114.269L848.787 45.8484H819.9L794.294 106.278H793.274V45.8484H765.207ZM564.36 189.242H592.017V137.005H602.874L620.283 189.242H648.965L628.275 130.448C642.749 121.845 649.985 108.392 649.985 90.0938C649.985 78.8962 646.913 69.4744 640.768 61.8272C634.759 54.0429 627.452 48.7163 618.848 45.8484H564.36V189.242ZM959.383 130.448C959.383 137.375 959.177 143.13 958.738 147.562C958.411 152.141 957.463 157.432 956.037 163.296C953.067 176.046 945.043 187.254 933.417 197.069L930.556 199.484H877.679L874.848 197.169C863.143 187.592 855.123 176.387 852.133 163.416C849.827 154.039 848.762 142.991 848.762 130.448V71.4794L830.017 114.354L865.601 199.484H812.078L803.516 177.469V199.484H717.341L713.04 176.744H697.646L693.345 199.484H612.902L602.259 167.557V199.484H516.494L512.193 176.744H496.799L492.498 199.484H405.908V140.081H393.62V199.484H345.069V184.711C342.189 189.712 338.263 194.071 333.191 197.629L330.545 199.484H262.784V155.239H299.293L270.221 103.072C264.637 93.0496 260.939 83.3913 260.939 74.7302C260.939 66.2112 262.727 58.2754 266.92 51.4797C271.156 44.616 277.391 39.6553 284.995 36.4212L286.92 35.606H393.62V93.3746H405.908V35.606H454.459V143.936L475.349 35.606H534.748L554.118 141.506V35.606H620.508L622.089 36.1311C632.723 39.6762 641.623 46.2428 648.745 55.4107C656.067 64.5232 659.751 75.4463 660.183 87.6382L660.228 90.0938C660.228 108.595 653.704 123.734 640.518 134.379L651.261 164.911L676.196 35.606H735.595L754.965 141.506V35.606H803.516V58.2563L813.118 35.606H897.313V140.691C897.313 146.603 897.877 150.133 898.474 151.948C898.914 152.955 899.523 154.053 900.344 155.239H907.761C908.544 154.061 909.082 152.998 909.436 152.053L909.516 151.843C910.156 150.242 910.831 146.806 910.831 140.691V35.606H959.383V130.448Z" fill="white"/>
</g>
<path d="M117.547 225.091C96.0392 225.091 75.7496 221.438 60.4183 214.8C43.9039 207.655 34.8115 197.696 34.8115 186.762C34.8115 175.827 43.9083 165.873 60.4183 158.724C75.7496 152.089 96.0392 148.432 117.547 148.432C139.055 148.432 159.345 152.085 174.676 158.724C191.191 165.869 200.283 175.827 200.283 186.762C200.283 197.696 191.186 207.65 174.676 214.8C159.345 221.434 139.055 225.091 117.547 225.091ZM117.547 157.317C97.2223 157.317 78.1822 160.712 63.9321 166.88C51.0556 172.454 43.6691 179.701 43.6691 186.771C43.6691 193.84 51.0556 201.087 63.9321 206.661C78.1822 212.825 97.2223 216.224 117.547 216.224C137.872 216.224 156.912 212.829 171.163 206.661C184.039 201.087 191.426 193.84 191.426 186.771C191.426 179.701 184.039 172.454 171.163 166.88C156.912 160.716 137.872 157.317 117.547 157.317Z" fill="#FF6247"/>
<path d="M117.548 208.094C151.456 208.094 178.944 197.692 178.944 184.862C178.944 172.031 151.456 161.63 117.548 161.63C83.6394 161.63 56.1514 172.031 56.1514 184.862C56.1514 197.692 83.6394 208.094 117.548 208.094Z" fill="#FF6247"/>
<path d="M199.127 46.1858H166.337L160.719 27.8755C160.134 25.9761 158.384 24.6803 156.399 24.6803H77.9564C75.9979 24.6803 74.2698 25.9539 73.6849 27.8267L67.9556 46.1902H35.9681C29.7292 46.1902 24.6735 51.2537 24.6735 57.5021V167.519C24.6735 173.768 29.7292 178.831 35.9681 178.831H199.127C205.366 178.831 210.422 173.768 210.422 167.519V57.4977C210.422 51.2493 205.366 46.1858 199.127 46.1858Z" fill="white"/>
<path d="M199.127 183.264H35.9681C27.2966 183.264 20.2424 176.199 20.2424 167.515V57.4976C20.2424 48.8129 27.2966 41.7479 35.9681 41.7479H64.7032L69.4621 26.4997C70.6319 22.7587 74.0438 20.2424 77.9608 20.2424H156.403C160.36 20.2424 163.798 22.7853 164.959 26.5751L169.616 41.7524H199.131C207.803 41.7524 214.857 48.8173 214.857 57.5021V167.519C214.857 176.204 207.803 183.269 199.131 183.269L199.127 183.264ZM35.9681 50.6235C32.184 50.6235 29.1045 53.7078 29.1045 57.4976V167.515C29.1045 171.305 32.184 174.389 35.9681 174.389H199.127C202.911 174.389 205.991 171.305 205.991 167.515V57.4976C205.991 53.7078 202.911 50.6235 199.127 50.6235H163.063L156.483 29.1801C156.47 29.1446 156.438 29.118 156.399 29.118H77.9564C77.9564 29.118 77.9209 29.1313 77.9165 29.1491L71.2124 50.6279H35.9681V50.6235Z" fill="#FF6247"/>
<path d="M160.745 112.074C160.745 135.86 138.94 165.966 126.17 186.06C121.965 192.682 112.323 192.682 108.114 186.06C95.3437 165.966 73.5386 135.86 73.5386 112.074C73.5386 88.2873 93.0617 68.3306 117.14 68.3306C141.218 68.3306 160.741 87.9145 160.741 112.074H160.745Z" fill="#FF6247"/>
<path d="M117.144 68.3303C141.222 68.3303 160.745 87.9142 160.745 112.074C160.745 136.233 138.94 165.966 126.17 186.06C124.065 189.371 120.605 191.026 117.144 191.026C113.684 191.026 110.218 189.371 108.118 186.06C95.348 165.966 73.543 135.86 73.543 112.074C73.543 88.287 93.066 68.3303 117.144 68.3303ZM117.144 59.4547C103.129 59.4547 89.951 64.9309 80.0433 74.8716C70.14 84.8078 64.681 98.019 64.681 112.074C64.681 122.737 68.2435 135.004 75.5768 149.573C81.5676 161.479 89.0028 172.898 95.5651 182.972C97.373 185.745 99.0789 188.368 100.643 190.826C104.254 196.507 110.422 199.902 117.149 199.902C123.875 199.902 130.043 196.511 133.654 190.826C135.218 188.368 136.924 185.745 138.732 182.972C145.29 172.898 152.73 161.475 158.72 149.573C166.054 135.004 169.616 122.737 169.616 112.074C169.616 98.0235 164.162 84.8078 154.254 74.8716C144.346 64.9309 131.168 59.4547 117.153 59.4547H117.144Z" fill="white"/>
<path d="M117.547 134.098C129.416 134.098 139.038 124.432 139.038 112.508C139.038 100.584 129.416 90.9183 117.547 90.9183C105.679 90.9183 96.0571 100.584 96.0571 112.508C96.0571 124.432 105.679 134.098 117.547 134.098Z" fill="white"/>
<path d="M188.652 63.9989H172.027C170.5 63.9989 169.262 65.2387 169.262 66.7681V74.5431C169.262 76.0725 170.5 77.3123 172.027 77.3123H188.652C190.179 77.3123 191.417 76.0725 191.417 74.5431V66.7681C191.417 65.2387 190.179 63.9989 188.652 63.9989Z" fill="#FF6247"/>
<path d="M895.468 165.48H912.676C915.68 162.202 917.797 158.925 919.026 155.647C920.392 152.233 921.074 147.248 921.074 140.693V45.8484H949.139V130.451C949.139 137.415 948.934 142.878 948.524 146.839C948.251 150.662 947.432 155.374 946.066 160.973C943.744 170.942 937.326 180.365 926.81 189.242H881.334C870.818 180.638 864.4 171.215 862.078 160.973C860.03 152.643 859.005 142.468 859.005 130.451V45.8484H887.07V140.693C887.07 147.248 887.684 152.233 888.913 155.647C890.279 158.925 892.464 162.202 895.468 165.48Z" fill="#FF6247"/>
<path d="M765.208 189.242V45.8484H793.272V106.279H794.296L819.902 45.8484H848.786L818.878 114.268L850.22 189.242H819.083L794.706 126.559H793.272V189.242H765.208Z" fill="#FF6247"/>
<path d="M725.829 189.242L721.527 166.504H689.161L684.859 189.242H657L684.654 45.8484H727.058L753.279 189.242H725.829ZM704.934 72.4786L696.945 120.208L692.439 144.585H718.045L713.333 120.208L705.344 72.4786H704.934Z" fill="#FF6247"/>
<path d="M564.361 45.8484H618.85C627.454 48.7163 634.76 54.0423 640.769 61.8265C646.915 69.4742 649.987 78.8972 649.987 90.0956C649.987 108.395 642.749 121.847 628.273 130.451L648.963 189.242H620.284L602.872 137.006H592.015V189.242H564.361V45.8484ZM592.015 70.4302V114.063H609.632C611.954 113.517 614.48 111.195 617.212 107.098C620.079 102.864 621.513 97.9481 621.513 92.3489C621.513 86.7497 620.284 81.8334 617.826 77.5998C615.504 73.3663 613.183 70.9764 610.861 70.4302H592.015Z" fill="#FF6247"/>
<path d="M524.982 189.242L520.68 166.504H488.314L484.012 189.242H456.153L483.807 45.8484H526.211L552.431 189.242H524.982ZM504.087 72.4786L496.098 120.208L491.592 144.585H517.198L512.486 120.208L504.497 72.4786H504.087Z" fill="#FF6247"/>
<path d="M383.376 189.242H355.312V45.8484H383.376V103.616H416.152V45.8484H444.216V189.242H416.152V129.836H383.376V189.242Z" fill="#FF6247"/>
<path d="M289.003 45.8484H338.167V70.4302H298.836L298.221 71.6593L330.997 131.475C337.689 143.493 341.034 152.643 341.034 158.925C341.034 172.718 336.46 182.823 327.31 189.242H273.025V165.48H315.428L316.043 164.251L279.17 98.0847C273.844 88.5251 271.181 80.7408 271.181 74.732C271.181 60.5292 277.122 50.9013 289.003 45.8484Z" fill="#FF6247"/>
<defs>
<filter id="filter0_d_938_2202" x="0" y="0" width="989.383" height="265.333" filterUnits="userSpaceOnUse" color-interpolation-filters="sRGB">
<feFlood flood-opacity="0" result="BackgroundImageFix"/>
<feColorMatrix in="SourceAlpha" type="matrix" values="0 0 0 0 0 0 0 0 0 0 0 0 0 0 0 0 0 0 127 0" result="hardAlpha"/>
<feOffset dx="10" dy="10"/>
<feGaussianBlur stdDeviation="10"/>
<feComposite in2="hardAlpha" operator="out"/>
<feColorMatrix type="matrix" values="0 0 0 0 0 0 0 0 0 0 0 0 0 0 0 0 0 0 0.7 0"/>
<feBlend mode="normal" in2="BackgroundImageFix" result="effect1_dropShadow_938_2202"/>
<feBlend mode="normal" in="SourceGraphic" in2="effect1_dropShadow_938_2202" result="shape"/>
</filter>
</defs>
</svg>
